<svg width="24" height="24" viewBox="0 0 24 24" fill="none" xmlns="http://www.w3.org/2000/svg">
<path d="M11.9978 12.3644C12.9971 11.3869 14.3411 10.8283 15.768 10.8283C16.8895 10.8283 17.9324 11.1687 18.7964 11.7578V8.23634C18.7964 7.05818 18.3294 5.97164 17.544 5.11636L17.5571 5.1251C18.2771 4.87637 18.7964 4.19564 18.7964 3.38835C18.7964 2.36728 17.9717 1.54254 16.9593 1.54254C15.9425 1.54254 15.1134 2.36728 15.1134 3.38835C15.1134 3.44508 15.1178 3.50618 15.1222 3.56727C14.4938 3.35346 13.8087 3.24 13.0975 3.24H10.9026C10.1869 3.24 9.48437 3.36217 8.82983 3.58909L8.87345 3.55854C8.87782 3.50181 8.88219 3.44071 8.88219 3.38835C8.88219 2.36728 8.05746 1.54254 7.04509 1.54254C6.02835 1.54254 5.20365 2.36728 5.20365 3.38835C5.20365 4.19564 5.72292 4.872 6.43854 5.1251C5.6749 5.95854 5.19928 7.02327 5.19928 8.23634V11.7622C6.06327 11.1731 7.10182 10.8283 8.22764 10.8283C9.65454 10.8283 10.9985 11.3869 11.9978 12.3644ZM16.8895 2.38472C17.4786 2.38472 17.9585 2.86471 17.9585 3.45382C17.9585 3.69381 17.7622 3.89018 17.5222 3.89018C17.2822 3.89018 17.0858 3.69381 17.0858 3.45382C17.0858 3.34473 16.9985 3.25745 16.8895 3.25745C16.6495 3.25745 16.4531 3.06108 16.4531 2.82108C16.4531 2.58109 16.6495 2.38472 16.8895 2.38472ZM14.6946 7.02327C15.2269 7.02327 15.6545 7.45526 15.6545 7.98327C15.6545 8.51126 15.2269 8.94328 14.6946 8.94328C14.1665 8.94328 13.7389 8.51126 13.7389 7.98327C13.7389 7.45526 14.1665 7.02327 14.6946 7.02327ZM9.30108 7.02327C9.82909 7.02327 10.2567 7.45526 10.2567 7.98327C10.2567 8.51126 9.82909 8.94328 9.30108 8.94328C8.76873 8.94328 8.3411 8.51126 8.3411 7.98327C8.3411 7.45526 8.76873 7.02327 9.30108 7.02327ZM7.11055 3.25745C7.00146 3.25745 6.91419 3.34473 6.91419 3.45382C6.91419 3.69381 6.72218 3.89018 6.47782 3.89018C6.23783 3.89018 6.04146 3.69381 6.04146 3.45382C6.04146 2.86471 6.52145 2.38472 7.11055 2.38472C7.35055 2.38472 7.54692 2.58109 7.54692 2.82108C7.54692 3.06108 7.35055 3.25745 7.11055 3.25745Z" fill="white"/>
<path d="M15.768 11.7011C14.1927 11.7011 12.8095 12.504 11.9978 13.7302C11.1862 12.504 9.80292 11.7011 8.22765 11.7011C5.73164 11.7011 3.71127 13.7258 3.71127 16.2175C3.71127 17.6444 4.37455 18.9229 5.4131 19.7476V21.3535C5.4131 21.96 5.91056 22.4575 6.51275 22.4575C7.12364 22.4575 7.6211 21.96 7.6211 21.3535V20.6946C7.81747 20.7207 8.02255 20.7338 8.22765 20.7338H11.5615V17.0247C11.5615 16.7804 11.7578 16.5884 11.9978 16.5884C12.2378 16.5884 12.4342 16.7804 12.4342 17.0247V20.7338H15.768C15.9731 20.7338 16.1782 20.7207 16.3789 20.6902V21.3535C16.3789 21.96 16.872 22.4575 17.4829 22.4575C18.0895 22.4575 18.5826 21.96 18.5826 21.3535V19.7476C19.6211 18.9229 20.2888 17.6444 20.2888 16.2175C20.2888 13.7258 18.2684 11.7011 15.768 11.7011ZM7.49893 17.2255C6.78766 17.2255 6.21165 16.6495 6.21165 15.9382C6.21165 15.2269 6.78766 14.6465 7.49893 14.6465C8.21018 14.6465 8.79055 15.2269 8.79055 15.9382C8.79055 16.6495 8.21018 17.2255 7.49893 17.2255ZM16.4967 17.2255C15.7855 17.2255 15.2051 16.6495 15.2051 15.9382C15.2051 15.2269 15.7855 14.6465 16.4967 14.6465C17.208 14.6465 17.784 15.2269 17.784 15.9382C17.784 16.6495 17.208 17.2255 16.4967 17.2255Z" fill="white"/>
</svg>
